<mxfile host="app.diagrams.net" modified="2024-07-29T15:31:44.429Z" agent="Mozilla/5.0 (Windows NT 10.0; Win64; x64) AppleWebKit/537.36 (KHTML, like Gecko) Chrome/127.0.0.0 Safari/537.36" version="24.2.1" etag="sNIfyJUwW7vZfciLR8zG" type="github">
  <diagram name="Page-1" id="Vt8uixtgJF803295ujzT">
    <mxGraphModel>
      <root>
        <mxCell id="0" />
        <mxCell id="1" parent="0" />
      </root>
    </mxGraphModel>
  </diagram>
</mxfile>
